<?xml version="1.0" encoding="utf-8"?>
<!-- Generator: Adobe Illustrator 19.0.0, SVG Export Plug-In . SVG Version: 6.00 Build 0)  -->
<svg version="1.1" id="Layer_1" xmlns="http://www.w3.org/2000/svg" xmlns:xlink="http://www.w3.org/1999/xlink" x="0px" y="0px"
	 viewBox="0 0 174 49.6" style="enable-background:new 0 0 174 49.6;" xml:space="preserve">
<style type="text/css">
	.st0{fill:#FFFFFF;}
</style>
<rect id="XMLID_16_" x="6.4" y="3.2" class="st0" width="159.9" height="42.2"/>
<g id="XMLID_19_">
	<g id="XMLID_141_">
		<path id="XMLID_142_" d="M118.1,28.8h2.4c-0.3-3.1-0.7-7-1.1-11.6C118.7,22.4,118.3,26.3,118.1,28.8z M99.4,26.2v7.8
			c1,0,1.7-0.2,1.9-0.5c0.3-0.3,0.4-1,0.4-2.1v-2.6c0-1.2-0.1-1.9-0.4-2.2C101.2,26.3,100.5,26.2,99.4,26.2z M100.9,15.8
			c-0.3-0.1-0.8-0.1-1.5-0.2v6.2c0.3,0,0.5,0,0.7,0c0.7,0,1.2-0.2,1.4-0.5c0.2-0.3,0.3-1.3,0.3-3c0-0.9-0.1-1.5-0.2-1.8
			C101.4,16.2,101.2,15.9,100.9,15.8z M21.5,15.9c-0.3-0.2-0.8-0.2-1.6-0.2v18.2c1,0,1.7-0.2,1.9-0.6c0.2-0.4,0.4-1.5,0.4-3.4V19.1
			c0-1.3,0-2.1-0.1-2.4C22,16.4,21.8,16.1,21.5,15.9z M80.9,15.1c-0.4,0-0.7,0.1-0.9,0.4c-0.2,0.3-0.3,1.1-0.3,2.6V31
			c0,1.6,0.1,2.6,0.2,3c0.1,0.4,0.4,0.6,0.9,0.6c0.5,0,0.8-0.2,0.9-0.7c0.1-0.4,0.2-1.5,0.2-3.1V18.1c0-1.3-0.1-2.1-0.2-2.5
			C81.6,15.2,81.4,15.1,80.9,15.1z M0,0v49.6h174V0H0z M29.4,30.4c0,2.5-0.1,4.1-0.4,5c-0.2,0.8-0.6,1.5-1.2,2
			c-0.6,0.5-1.3,0.8-2.2,1c-0.9,0.2-2.1,0.3-3.9,0.3h-9.1V11h5.4c3.5,0,5.8,0.2,7.1,0.5c1.2,0.3,2.2,0.8,2.8,1.6
			c0.6,0.7,1,1.5,1.2,2.4c0.2,0.9,0.2,2.7,0.2,5.3V30.4z M44.9,38.6H32.4V11h12v5.5h-4.8v5.3h4.5V27h-4.5v6.1h5.3V38.6z M69.5,38.6
			h-6.3l0-18.7l-2.5,18.7h-4.5l-2.6-18.3l0,18.3h-6.3V11h9.3c0.3,1.7,0.5,3.6,0.8,5.9l1,7L60.1,11h9.4V38.6z M89.2,27.2
			c0,2.8-0.1,4.8-0.2,5.9c-0.1,1.2-0.5,2.2-1.2,3.2c-0.7,1-1.6,1.7-2.8,2.2c-1.2,0.5-2.5,0.8-4.1,0.8c-1.5,0-2.8-0.2-4-0.7
			c-1.2-0.5-2.1-1.2-2.8-2.2c-0.7-1-1.1-2-1.3-3.2c-0.1-1.1-0.2-3.1-0.2-6v-4.7c0-2.8,0.1-4.8,0.2-5.9c0.1-1.2,0.5-2.2,1.2-3.2
			c0.7-1,1.6-1.7,2.8-2.2c1.2-0.5,2.5-0.8,4.1-0.8c1.5,0,2.8,0.2,4,0.7c1.2,0.5,2.1,1.2,2.8,2.2c0.7,1,1.1,2,1.3,3.2
			c0.1,1.1,0.2,3.1,0.2,6V27.2z M109,32.1c0,1.9-0.2,3.3-0.6,4.2c-0.4,0.9-1.1,1.5-2,1.8c-0.9,0.3-2.9,0.5-5.7,0.5h-8.3V11h7.2
			c2.3,0,4,0.2,5.2,0.5c1.2,0.4,2.1,1.1,2.8,2.1c0.7,1.1,1.1,2.8,1.1,5.2c0,1.6-0.3,2.7-0.8,3.4c-0.5,0.6-1.5,1.1-3,1.5
			c1.7,0.4,2.8,1,3.4,1.9c0.6,0.9,0.9,2.2,0.9,4V32.1z M121.1,38.6l-0.4-5h-2.6l-0.4,5h-7.5l3.7-27.7h10.4l4.1,27.7H121.1z
			 M143,16.5l-5.4,16.6h5.4v5.5h-13.3v-4l5.5-18.1h-4.9V11H143V16.5z M155.1,38.6l-0.4-5h-2.6l-0.4,5h-7.5l3.7-27.7h10.4l4.1,27.7
			H155.1z M152.1,28.8h2.4c-0.3-3.1-0.7-7-1.1-11.6C152.7,22.4,152.2,26.3,152.1,28.8z"/>
	</g>
</g>
</svg>
